<mxfile host="app.diagrams.net" modified="2021-09-21T08:00:35.092Z" agent="5.0 (X11; Linux x86_64) AppleWebKit/537.36 (KHTML, like Gecko) Chrome/95.0.4613.0 Safari/537.36 Edg/95.0.1000.0" etag="AbKMbBCQuwxmOS67q-xX" version="14.8.4" type="github">
  <diagram id="Uh0x5iZMiq7ngJp5gzgv" name="Page-1">
    <mxGraphModel dx="1750" dy="1142" grid="1" gridSize="10" guides="1" tooltips="1" connect="1" arrows="1" fold="1" page="1" pageScale="1" pageWidth="827" pageHeight="1169" math="0" shadow="0">
      <root>
        <mxCell id="0" />
        <mxCell id="1" parent="0" />
        <mxCell id="o5yx3U2SduB-E6GO2qZT-1" value="Login - Löpökulu" style="strokeWidth=1;shadow=0;dashed=0;align=center;html=1;shape=mxgraph.mockup.containers.window;align=left;verticalAlign=top;spacingLeft=8;strokeColor2=#008cff;strokeColor3=#c4c4c4;fontColor=#666666;mainText=;fontSize=17;labelBackgroundColor=none;" vertex="1" parent="1">
          <mxGeometry x="44" y="80" width="296" height="380" as="geometry" />
        </mxCell>
        <mxCell id="o5yx3U2SduB-E6GO2qZT-2" value="Login-Browser WireFrame" style="text;html=1;strokeColor=none;fillColor=none;align=center;verticalAlign=middle;whiteSpace=wrap;rounded=0;fontSize=26;" vertex="1" parent="1">
          <mxGeometry x="44" y="30" width="740" height="20" as="geometry" />
        </mxCell>
        <mxCell id="o5yx3U2SduB-E6GO2qZT-13" value="" style="group" vertex="1" connectable="0" parent="1">
          <mxGeometry x="80" y="150" width="220" height="260" as="geometry" />
        </mxCell>
        <mxCell id="o5yx3U2SduB-E6GO2qZT-4" value="" style="rounded=0;whiteSpace=wrap;html=1;fontSize=26;align=center;" vertex="1" parent="o5yx3U2SduB-E6GO2qZT-13">
          <mxGeometry width="220" height="260" as="geometry" />
        </mxCell>
        <mxCell id="o5yx3U2SduB-E6GO2qZT-5" value="Login - Löpökulu" style="text;html=1;strokeColor=none;fillColor=none;align=center;verticalAlign=middle;whiteSpace=wrap;rounded=0;fontSize=20;" vertex="1" parent="o5yx3U2SduB-E6GO2qZT-13">
          <mxGeometry x="16" y="10" width="190" height="20" as="geometry" />
        </mxCell>
        <mxCell id="o5yx3U2SduB-E6GO2qZT-6" value="Username" style="text;html=1;strokeColor=none;fillColor=none;align=left;verticalAlign=middle;whiteSpace=wrap;rounded=0;fontSize=14;" vertex="1" parent="o5yx3U2SduB-E6GO2qZT-13">
          <mxGeometry x="6" y="50" width="200" height="20" as="geometry" />
        </mxCell>
        <mxCell id="o5yx3U2SduB-E6GO2qZT-7" value="Password" style="text;html=1;strokeColor=none;fillColor=none;align=left;verticalAlign=middle;whiteSpace=wrap;rounded=0;fontSize=14;" vertex="1" parent="o5yx3U2SduB-E6GO2qZT-13">
          <mxGeometry x="6" y="110" width="200" height="20" as="geometry" />
        </mxCell>
        <mxCell id="o5yx3U2SduB-E6GO2qZT-8" value="Enter your username" style="strokeWidth=1;shadow=0;dashed=0;align=center;html=1;shape=mxgraph.mockup.text.textBox;fontColor=#666666;align=left;fontSize=17;spacingLeft=4;spacingTop=-3;strokeColor=#666666;mainText=" vertex="1" parent="o5yx3U2SduB-E6GO2qZT-13">
          <mxGeometry x="6" y="70" width="210" height="30" as="geometry" />
        </mxCell>
        <mxCell id="o5yx3U2SduB-E6GO2qZT-9" value="********" style="strokeWidth=1;shadow=0;dashed=0;align=center;html=1;shape=mxgraph.mockup.forms.pwField;strokeColor=#999999;mainText=;align=left;fontColor=#666666;fontSize=17;spacingLeft=3;" vertex="1" parent="o5yx3U2SduB-E6GO2qZT-13">
          <mxGeometry x="6" y="130" width="210" height="30" as="geometry" />
        </mxCell>
        <mxCell id="o5yx3U2SduB-E6GO2qZT-10" value="Login" style="strokeWidth=1;shadow=0;dashed=0;align=center;html=1;shape=mxgraph.mockup.buttons.button;strokeColor=#666666;fontColor=#ffffff;mainText=;buttonStyle=round;fontSize=17;fontStyle=1;fillColor=#008cff;whiteSpace=wrap;" vertex="1" parent="o5yx3U2SduB-E6GO2qZT-13">
          <mxGeometry x="6" y="180" width="210" height="30" as="geometry" />
        </mxCell>
        <mxCell id="o5yx3U2SduB-E6GO2qZT-11" value="&lt;font style=&quot;font-size: 14px;&quot;&gt;Forgot password?&lt;/font&gt;" style="shape=rectangle;strokeColor=none;fillColor=none;linkText=;fontSize=14;fontColor=#0000ff;fontStyle=4;html=1;align=center;" vertex="1" parent="o5yx3U2SduB-E6GO2qZT-13">
          <mxGeometry x="6" y="220" width="110" height="30" as="geometry" />
        </mxCell>
        <mxCell id="o5yx3U2SduB-E6GO2qZT-12" value="&lt;font style=&quot;font-size: 14px&quot;&gt;Register&lt;/font&gt;" style="shape=rectangle;strokeColor=none;fillColor=none;linkText=;fontSize=14;fontColor=#0000ff;fontStyle=4;html=1;align=right;" vertex="1" parent="o5yx3U2SduB-E6GO2qZT-13">
          <mxGeometry x="136" y="220" width="80" height="30" as="geometry" />
        </mxCell>
      </root>
    </mxGraphModel>
  </diagram>
</mxfile>
